<?xml version="1.0" encoding="UTF-8" standalone="no"?><!DOCTYPE svg PUBLIC "-//W3C//DTD SVG 1.1//EN" "http://www.w3.org/Graphics/SVG/1.1/DTD/svg11.dtd"><svg width="100%" height="100%" viewBox="0 0 1024 1024" version="1.1" xmlns="http://www.w3.org/2000/svg" xmlns:xlink="http://www.w3.org/1999/xlink" xml:space="preserve" style="fill-rule:evenodd;clip-rule:evenodd;stroke-linejoin:round;stroke-miterlimit:1.41421;"><clipPath id="_clip1"><rect id="Artboard1" x="0" y="0" width="1024" height="1024"/></clipPath><g clip-path="url(#_clip1)"><text x="495.759px" y="597.079px" style="font-family:'SavoyeLetPlain', 'Savoye LET';font-size:629.449px;fill:#fff;">r</text><g transform="matrix(-1,3.21625e-16,-3.21625e-16,-1,1717.89,2297.99)"><text x="1188.19px" y="1857.9px" style="font-family:'SavoyeLetPlain', 'Savoye LET';font-size:629.449px;fill:#fff;">r</text></g><path d="M423.275,473.376l4.87,5.517c-41.406,45.125 -58.633,110.337 -39.64,173.159c28.618,94.66 128.705,148.278 223.365,119.659c4.672,-1.413 9.244,-2.999 13.711,-4.751l6.602,5.223c-5.886,2.464 -11.954,4.648 -18.194,6.535c-98.528,29.788 -202.704,-26.02 -232.491,-124.548c-19.848,-65.649 -1.695,-133.806 41.777,-180.794Z" style="fill:#fff;"/><path d="M602.348,563.606l-4.871,-5.517c41.406,-45.126 58.633,-110.338 39.64,-173.16c-28.618,-94.66 -128.705,-148.277 -223.365,-119.659c-4.672,1.413 -9.244,2.999 -13.711,4.751l-6.602,-5.223c5.886,-2.463 11.954,-4.648 18.194,-6.535c98.528,-29.787 202.704,26.02 232.491,124.548c19.848,65.649 1.695,133.806 -41.776,180.795Z" style="fill:#fff;"/><path d="M397.086,263.965c0,0 57.593,119.383 63.536,152.584c3.272,18.281 -7.618,39.007 -24.665,49.956" style="fill:none;stroke-width:7px;stroke:#fff;"/><path d="M628.162,773.186c0,0 -57.593,-119.382 -63.536,-152.584c-3.272,-18.28 7.618,-39.006 24.665,-49.956" style="fill:none;stroke-width:7px;stroke:#fff;"/></g></svg>